<svg width="52" height="11" fill="none" xmlns="http://www.w3.org/2000/svg"><mask id="a" maskUnits="userSpaceOnUse" x="0" y="0" width="52" height="11"><path d="M0 0h52v11H0V0z" fill="#fff"/></mask><g mask="url(#a)" fill-rule="evenodd" clip-rule="evenodd"><path d="M49.943 10.854H52V0h-2.057v10.854zM14.226 5.815h-3.04c.078-.705.23-1.448 1.5-1.448 1.469 0 1.503.698 1.536 1.373l.004.075zm-1.469-3.148h-.1c-.835 0-1.99.177-2.74 1.02-.648.714-1.02 1.783-1.02 2.932v.294c0 .191.027 1.197.55 2.17.544 1.008 1.441 1.61 2.594 1.738.198.022.412.033.634.033 1.383 0 2.745-.418 2.802-.436l.095-.03V8.845s-1.795.2-2.387.22c-1.812.057-2.025-.857-2.047-1.577h5.083V6.11c0-1.134-.292-1.973-.892-2.566-.722-.725-1.797-.877-2.572-.877zm13.327 3.158h-3.04c.079-.705.232-1.448 1.5-1.448 1.47 0 1.504.698 1.537 1.373l.003.075zm-1.468-3.148h-.1c-.835 0-1.99.177-2.74 1.02-.648.714-1.02 1.783-1.02 2.932v.294c0 .191.027 1.197.55 2.17.544 1.009 1.441 1.61 2.594 1.738.198.022.412.033.634.033 1.383 0 2.744-.418 2.802-.436l.095-.03V8.856s-1.795.2-2.388.22c-1.811.057-2.024-.857-2.046-1.577h5.082V6.12c0-1.133-.291-1.973-.891-2.566-.722-.725-1.797-.877-2.572-.877zm21.977 3.148h-3.04c.078-.705.23-1.448 1.5-1.448 1.468 0 1.503.698 1.536 1.373l.004.075zm-1.469-3.148h-.1c-.835 0-1.99.177-2.74 1.02-.648.714-1.02 1.783-1.02 2.932v.294a4.9 4.9 0 00.551 2.17c.544 1.009 1.44 1.61 2.593 1.738.198.022.412.033.634.033 1.383 0 2.744-.418 2.802-.436l.095-.03V8.856s-1.795.2-2.388.22c-1.81.057-2.024-.857-2.046-1.577h5.083V6.12c0-1.133-.292-1.973-.892-2.566-.722-.725-1.797-.877-2.572-.877zm-27.548 8.187h2.057V0h-2.057v10.864z" fill="#404042"/><path d="M2.775 6.064c.52.201 1.937.75 2.248.88.21.087.366.221.464.4l.04.07h2.22l-.018-.16C7.526 5.53 6.389 5.098 5.287 4.68c-.369-.14-1.028-.372-1.509-.542-.267-.095-.477-.169-.532-.19-.636-.245-1.158-.501-1.09-1.167.056-.563.51-.795 1.565-.798 1.067.002 3.222.189 3.243.19l.146.013V.436L7.008.41C6.994.406 4.957.008 3.693 0h-.052c-.918 0-1.68.163-2.263.486C.463.99 0 1.864 0 3.08c0 1.34.83 2.232 2.775 2.983z" fill="#C02C25"/><path d="M5.51 8.358c-.247.532-.934.583-1.626.583h-.083c-1.105 0-3.48-.252-3.504-.255l-.148-.015v1.863l.101.026c.017.005 1.998.44 3.447.44 2.44 0 3.83-.913 4.035-2.642H5.51z" fill="#404042"/><path d="M38.591 4.47h1.829V2.747h-1.83V0h-2.084v7.422h2.084V4.47z" fill="#C02C25"/><path d="M39.551 9.042c-.648 0-.931-.198-.958-.678h-2.086c.018 1.683 1.123 2.382 2.159 2.473.075.007.159.01.249.01.636 0 1.572-.192 1.572-.192V8.983s-.747.06-.936.06zm-6.433-6.328c-.339 0-.647.016-.919.05-1.121.137-1.984.762-2.495 1.807-.466.954-.502 1.936-.502 2.214 0 .277.036 1.254.503 2.205.511 1.04 1.373 1.669 2.493 1.817.237.031.518.047.836.047.97 0 1.997-.149 2.007-.15l.115-.017V8.954s-1.124.078-1.69.078c-.701 0-1.005-.046-1.135-.085-.792-.234-.871-1.463-.868-1.98v-.362c-.003-.53.076-1.784.862-1.98.23-.058.637-.088 1.177-.088.563 0 1.654.08 1.654.08V2.874l-.114-.017a14.284 14.284 0 00-1.924-.144z" fill="#404042"/></g></svg>